# xmcd CD database file generated by OrangeCD 5.2
#
# Track frame offsets:
#	150
#	12757
#	42460
#	53476
#	67353
#	89307
#	101064
#	114192
#	127788
#	140127
#	164685
#	177537
#	188155
#	198942
#	211212
#	223676
#	234357
#	245977
#	257424
#	267970
#	278759
#	295496
#	306589
#	317051
#	334440
#	346906
#
# Disc length: 4773 seconds
#
# Revision: 0
# Processed by: cddbd v1.5.1PL2 Copyright (c) Steve Scherf et al.
# Submitted via: OrangeCD 5.2
#
DISCID=9b12a31a
DTITLE=Various Artist - Rhythm and Blues Classics Volume 1
DYEAR=2006
DGENRE=Dance R&B
TTITLE0=Albert King - Born Under A Bad Sign
TTITLE1=Bo Diddley - Ooh Baby - Wreaking My Love Life
TTITLE2=Howlin' Wolf - The Red Rooster
TTITLE3=B.B. King - Rock Me Baby
TTITLE4=Bobby Marchan - Something Is On Your Mind   Parts 1 and 2
TTITLE5=Lightnin' Slim - Rooster Blues
TTITLE6=Jimm Reed - Honest I Do 
TTITLE7=Jimmy Reed - You Got Me Dizzy
TTITLE8=Elmore James - The Sun Is Shining
TTITLE9=B.B. King - The Thrill Is Gone
TTITLE10=Wynonie Harris - Good Rockin' Tonight
TTITLE11=Clarence "Frogman" Henry - (I Don't Know Why) But I Do
TTITLE12=Clarence "Frogman" Henry - Ain't Got No Home
TTITLE13=Ernie K- Doe - Te Ta Te Ta Ta
TTITLE14=Frankie Ford - Sea Cruise
TTITLE15=Frankie Lymon and The Teenagers - Why Do Fool Fall In Love
TTITLE16=Huey "Piano" Smith - Don't You Just Know It
TTITLE17=The Isley Brothers - Twist and Shout
TTITLE18=Little Anthony and The Imperials - Tears On My Pillow
TTITLE19=Major Lance - Um, Um, Um, Um, Um, Um
TTITLE20=The Pointer Sisters - Mr. Lee
TTITLE21=The Showmen - It Will Stand
TTITLE22=The Simms Twins - Soothe Me
TTITLE23=Al Green - I Can't Get Next To You
TTITLE24=Al Green - Tired Of Being Alone
TTITLE25=Willie Mitchell - 30-60-90
EXTD=
EXTT0=
EXTT1=
EXTT2=
EXTT3=
EXTT4=
EXTT5=
EXTT6=
EXTT7=
EXTT8=
EXTT9=
EXTT10=
EXTT11=
EXTT12=
EXTT13=
EXTT14=
EXTT15=
EXTT16=
EXTT17=
EXTT18=
EXTT19=
EXTT20=
EXTT21=
EXTT22=
EXTT23=
EXTT24=
EXTT25=
PLAYORDER=
